<?xml version="1.0" standalone="no"?>
<!DOCTYPE svg PUBLIC "-//W3C//DTD SVG 20010904//EN"
 "http://www.w3.org/TR/2001/REC-SVG-20010904/DTD/svg10.dtd">
<svg version="1.0" xmlns="http://www.w3.org/2000/svg"
 width="256.000000pt" height="256.000000pt" viewBox="0 0 256.000000 256.000000"
 preserveAspectRatio="xMidYMid meet">
<metadata>
Created by potrace 1.14, written by Peter Selinger 2001-2017
</metadata>
<g transform="translate(0.000000,256.000000) scale(0.100000,-0.100000)"
fill="#000000" stroke="none">
<path d="M1140 2553 c-535 -74 -944 -423 -1091 -930 -11 -38 -22 -84 -25 -103
-3 -19 -9 -54 -14 -77 -12 -70 -4 -321 15 -408 77 -366 283 -661 596 -853 121
-74 256 -126 414 -159 114 -25 380 -24 494 0 540 116 929 526 1015 1070 18
108 13 332 -8 432 -98 456 -414 818 -841 963 -141 48 -235 64 -390 66 -77 1
-151 1 -165 -1z"/>
</g>
</svg>
